<?xml version="1.0" encoding="utf-8"?>
<!-- Generator: Adobe Illustrator 18.0.0, SVG Export Plug-In . SVG Version: 6.00 Build 0)  -->
<!DOCTYPE svg PUBLIC "-//W3C//DTD SVG 1.1//EN" "http://www.w3.org/Graphics/SVG/1.1/DTD/svg11.dtd">
<svg version="1.1" id="Calque_1" xmlns="http://www.w3.org/2000/svg" xmlns:xlink="http://www.w3.org/1999/xlink" x="0px" y="0px"
	 viewBox="0 0 614.7 399.4" style="enable-background:new 0 0 614.7 399.4;" xml:space="preserve">
<style type="text/css">
	.st0{fill:none;stroke:#000000;stroke-linecap:round;stroke-linejoin:round;stroke-miterlimit:10;}
	.st1{font-family:'Verdana';}
	.st2{font-size:15.5948;}
	.st3{fill:none;stroke:#FF0000;stroke-width:4;stroke-linecap:square;stroke-miterlimit:10;}
</style>
<g>
	<g>
		<polyline class="st0" points="485.2,342.2 513.5,325.8 541.9,342.2 541.9,374.9 513.5,391.3 485.2,374.9 485.2,342.2 		"/>
		<text transform="matrix(1 0 0 1 503.9939 364.1931)" class="st1 st2">0</text>
	</g>
	<g>
		<polyline class="st0" points="428.5,342.2 456.9,325.8 485.2,342.2 485.2,374.9 456.9,391.3 428.5,374.9 428.5,342.2 		"/>
		<text transform="matrix(1 0 0 1 451.9138 364.1931)" class="st1 st2">1</text>
	</g>
	<g>
		<polyline class="st0" points="371.8,342.2 400.2,325.8 428.5,342.2 428.5,374.9 400.2,391.3 371.8,374.9 371.8,342.2 		"/>
		<text transform="matrix(1 0 0 1 395.3337 364.1931)" class="st1 st2">2</text>
	</g>
	<g>
		<polyline class="st0" points="513.5,293.1 541.9,276.7 570.2,293.1 570.2,325.8 541.9,342.2 513.5,325.8 513.5,293.1 		"/>
		<text transform="matrix(1 0 0 1 537.2332 315.113)" class="st1 st2">3</text>
	</g>
	<g>
		<polyline class="st0" points="456.9,293.1 485.2,276.7 513.5,293.1 513.5,325.8 485.2,342.2 456.9,325.8 456.9,293.1 		"/>
		<text transform="matrix(1 0 0 1 480.6531 315.113)" class="st1 st2">4</text>
	</g>
	<g>
		<polyline class="st0" points="400.2,293.1 428.5,276.7 456.9,293.1 456.9,325.8 428.5,342.2 400.2,325.8 400.2,293.1 		"/>
		<text transform="matrix(1 0 0 1 423.8337 315.113)" class="st1 st2">5</text>
	</g>
	<g>
		<polyline class="st0" points="343.5,293.1 371.8,276.7 400.2,293.1 400.2,325.8 371.8,342.2 343.5,325.8 343.5,293.1 		"/>
		<text transform="matrix(1 0 0 1 367.0134 315.113)" class="st1 st2">6</text>
	</g>
	<g>
		<polyline class="st0" points="485.2,244 513.5,227.6 541.9,244 541.9,276.7 513.5,293.1 485.2,276.7 485.2,244 		"/>
		<text transform="matrix(1 0 0 1 509.6335 266.0329)" class="st1 st2">7</text>
	</g>
	<g>
		<polyline class="st0" points="428.5,244 456.9,227.6 485.2,244 485.2,276.7 456.9,293.1 428.5,276.7 428.5,244 		"/>
		<text transform="matrix(1 0 0 1 451.613 266.0329)" class="st1 st2">8</text>
	</g>
	<g>
		<polyline class="st0" points="371.8,244 400.2,227.6 428.5,244 428.5,276.7 400.2,293.1 371.8,276.7 371.8,244 		"/>
		<text transform="matrix(1 0 0 1 395.3933 266.0329)" class="st1 st2">9</text>
	</g>
	<g>
		<polyline class="st0" points="513.5,194.9 541.9,178.5 570.2,194.9 570.2,227.6 541.9,244 513.5,227.6 513.5,194.9 		"/>
		<text transform="matrix(1 0 0 1 537.4138 216.8932)" class="st1 st2">10</text>
	</g>
	<g>
		<polyline class="st0" points="456.9,194.9 485.2,178.5 513.5,194.9 513.5,227.6 485.2,244 456.9,227.6 456.9,194.9 		"/>
		<text transform="matrix(1 0 0 1 475.8533 216.8932)" class="st1 st2">11</text>
	</g>
	<g>
		<polyline class="st0" points="400.2,194.9 428.5,178.5 456.9,194.9 456.9,227.6 428.5,244 400.2,227.6 400.2,194.9 		"/>
		<text transform="matrix(1 0 0 1 418.9734 216.8932)" class="st1 st2">12</text>
	</g>
	<g>
		<polyline class="st0" points="343.5,194.9 371.8,178.5 400.2,194.9 400.2,227.6 371.8,244 343.5,227.6 343.5,194.9 		"/>
		<text transform="matrix(1 0 0 1 361.9138 216.8932)" class="st1 st2">13</text>
	</g>
</g>
<g>
	<g>
		<polyline class="st0" points="145.1,317.6 116.7,301.3 88.4,317.6 88.4,350.3 116.7,366.7 145.1,350.3 145.1,317.6 		"/>
		<text transform="matrix(1 0 0 1 106.7937 339.653)" class="st1 st2">14</text>
	</g>
	<g>
		<polyline class="st0" points="201.8,317.6 173.4,301.3 145.1,317.6 145.1,350.3 173.4,366.7 201.8,350.3 201.8,317.6 		"/>
		<text transform="matrix(1 0 0 1 163.4934 339.653)" class="st1 st2">15</text>
	</g>
	<g>
		<polyline class="st0" points="258.5,317.6 230.1,301.3 201.8,317.6 201.8,350.3 230.1,366.7 258.5,350.3 258.5,317.6 		"/>
		<text transform="matrix(1 0 0 1 220.1936 339.653)" class="st1 st2">16</text>
	</g>
	<g>
		<polyline class="st0" points="116.7,268.6 88.4,252.2 60.1,268.6 60.1,301.3 88.4,317.6 116.7,301.3 116.7,268.6 		"/>
		<text transform="matrix(1 0 0 1 78.4734 290.5729)" class="st1 st2">17</text>
	</g>
	<g>
		<polyline class="st0" points="173.4,268.6 145.1,252.2 116.7,268.6 116.7,301.3 145.1,317.6 173.4,301.3 173.4,268.6 		"/>
		<text transform="matrix(1 0 0 1 135.1736 290.5729)" class="st1 st2">18</text>
	</g>
	<g>
		<polyline class="st0" points="230.1,268.6 201.8,252.2 173.4,268.6 173.4,301.3 201.8,317.6 230.1,301.3 230.1,268.6 		"/>
		<text transform="matrix(1 0 0 1 191.8733 290.5729)" class="st1 st2">19</text>
	</g>
	<g>
		<polyline class="st0" points="286.8,268.6 258.5,252.2 230.1,268.6 230.1,301.3 258.5,317.6 286.8,301.3 286.8,268.6 		"/>
		<text transform="matrix(1 0 0 1 248.5134 290.5729)" class="st1 st2">20</text>
	</g>
	<g>
		<polyline class="st0" points="145.1,219.4 116.7,203.1 88.4,219.4 88.4,252.2 116.7,268.6 145.1,252.2 145.1,219.4 		"/>
		<text transform="matrix(1 0 0 1 106.7937 241.4938)" class="st1 st2">21</text>
	</g>
	<g>
		<polyline class="st0" points="201.8,219.4 173.4,203.1 145.1,219.4 145.1,252.2 173.4,268.6 201.8,252.2 201.8,219.4 		"/>
		<text transform="matrix(1 0 0 1 163.4934 241.4938)" class="st1 st2">22</text>
	</g>
	<g>
		<polyline class="st0" points="258.5,219.4 230.1,203.1 201.8,219.4 201.8,252.2 230.1,268.6 258.5,252.2 258.5,219.4 		"/>
		<text transform="matrix(1 0 0 1 220.1936 241.4938)" class="st1 st2">23</text>
	</g>
</g>
<g>
	<g>
		<polyline class="st0" points="116.7,170.3 88.4,154 60.1,170.3 60.1,203.1 88.4,219.4 116.7,203.1 116.7,170.3 		"/>
		<text transform="matrix(1 0 0 1 83.3868 193.0199)" class="st1 st2">0</text>
	</g>
	<g>
		<polyline class="st0" points="173.4,170.3 145.1,154 116.7,170.3 116.7,203.1 145.1,219.4 173.4,203.1 173.4,170.3 		"/>
		<text transform="matrix(1 0 0 1 140.0935 192.3532)" class="st1 st2">1</text>
	</g>
	<g>
		<polyline class="st0" points="230.1,170.3 201.8,154 173.4,170.3 173.4,203.1 201.8,219.4 230.1,203.1 230.1,170.3 		"/>
		<text transform="matrix(1 0 0 1 196.2536 192.3532)" class="st1 st2">2</text>
	</g>
	<g>
		<polyline class="st0" points="88.4,121.3 60.1,104.9 31.7,121.3 31.7,154 60.1,170.3 88.4,154 88.4,121.3 		"/>
		<text transform="matrix(1 0 0 1 54.5935 143.2731)" class="st1 st2">3</text>
	</g>
	<g>
		<polyline class="st0" points="145.1,121.3 116.7,104.9 88.4,121.3 88.4,154 116.7,170.3 145.1,154 145.1,121.3 		"/>
		<text transform="matrix(1 0 0 1 111.2937 143.2731)" class="st1 st2">4</text>
	</g>
	<g>
		<polyline class="st0" points="201.8,121.3 173.4,104.9 145.1,121.3 145.1,154 173.4,170.3 201.8,154 201.8,121.3 		"/>
		<text transform="matrix(1 0 0 1 168.3533 143.2731)" class="st1 st2">5</text>
	</g>
	<g>
		<polyline class="st0" points="258.5,121.3 230.1,104.9 201.8,121.3 201.8,154 230.1,170.3 258.5,154 258.5,121.3 		"/>
		<text transform="matrix(1 0 0 1 224.6335 143.2731)" class="st1 st2">6</text>
	</g>
	<g>
		<polyline class="st0" points="116.7,72.2 88.4,55.8 60.1,72.2 60.1,104.9 88.4,121.3 116.7,104.9 116.7,72.2 		"/>
		<text transform="matrix(1 0 0 1 82.1936 94.1935)" class="st1 st2">7</text>
	</g>
	<g>
		<polyline class="st0" points="173.4,72.2 145.1,55.8 116.7,72.2 116.7,104.9 145.1,121.3 173.4,104.9 173.4,72.2 		"/>
		<text transform="matrix(1 0 0 1 140.2136 94.1935)" class="st1 st2">8</text>
	</g>
	<g>
		<polyline class="st0" points="230.1,72.2 201.8,55.8 173.4,72.2 173.4,104.9 201.8,121.3 230.1,104.9 230.1,72.2 		"/>
		<text transform="matrix(1 0 0 1 196.6135 94.1935)" class="st1 st2">9</text>
	</g>
	<g>
		<polyline class="st0" points="88.4,23 60.1,6.7 31.7,23 31.7,55.8 60.1,72.2 88.4,55.8 88.4,23 		"/>
		<text transform="matrix(1 0 0 1 50.107 45.7801)" class="st1 st2">10</text>
	</g>
	<g>
		<polyline class="st0" points="145.1,23 116.7,6.7 88.4,23 88.4,55.8 116.7,72.2 145.1,55.8 145.1,23 		"/>
		<text transform="matrix(1 0 0 1 105.1736 45.1135)" class="st1 st2">11</text>
	</g>
	<g>
		<polyline class="st0" points="201.8,23 173.4,6.7 145.1,23 145.1,55.8 173.4,72.2 201.8,55.8 201.8,23 		"/>
		<text transform="matrix(1 0 0 1 162.7136 45.1135)" class="st1 st2">12</text>
	</g>
	<g>
		<polyline class="st0" points="258.5,23 230.1,6.7 201.8,23 201.8,55.8 230.1,72.2 258.5,55.8 258.5,23 		"/>
		<text transform="matrix(1 0 0 1 219.1135 45.1135)" class="st1 st2">13</text>
	</g>
</g>
<g>
	<g>
		<polyline class="st0" points="485.2,145.8 513.5,129.4 541.9,145.8 541.9,178.5 513.5,194.9 485.2,178.5 485.2,145.8 		"/>
		<text transform="matrix(1 0 0 1 503.7537 167.8132)" class="st1 st2">14</text>
	</g>
	<g>
		<polyline class="st0" points="428.5,145.8 456.9,129.4 485.2,145.8 485.2,178.5 456.9,194.9 428.5,178.5 428.5,145.8 		"/>
		<text transform="matrix(1 0 0 1 447.2332 167.8132)" class="st1 st2">15</text>
	</g>
	<g>
		<polyline class="st0" points="371.8,145.8 400.2,129.4 428.5,145.8 428.5,178.5 400.2,194.9 371.8,178.5 371.8,145.8 		"/>
		<text transform="matrix(1 0 0 1 390.6531 167.8132)" class="st1 st2">16</text>
	</g>
	<g>
		<polyline class="st0" points="513.5,96.7 541.9,80.3 570.2,96.7 570.2,129.4 541.9,145.8 513.5,129.4 513.5,96.7 		"/>
		<text transform="matrix(1 0 0 1 532.2537 118.7331)" class="st1 st2">17</text>
	</g>
	<g>
		<polyline class="st0" points="456.9,96.7 485.2,80.3 513.5,96.7 513.5,129.4 485.2,145.8 456.9,129.4 456.9,96.7 		"/>
		<text transform="matrix(1 0 0 1 475.4939 118.7331)" class="st1 st2">18</text>
	</g>
	<g>
		<polyline class="st0" points="400.2,96.7 428.5,80.3 456.9,96.7 456.9,129.4 428.5,145.8 400.2,129.4 400.2,96.7 		"/>
		<text transform="matrix(1 0 0 1 419.6335 118.7331)" class="st1 st2">19</text>
	</g>
	<g>
		<polyline class="st0" points="343.5,96.7 371.8,80.3 400.2,96.7 400.2,129.4 371.8,145.8 343.5,129.4 343.5,96.7 		"/>
		<text transform="matrix(1 0 0 1 361.613 118.7331)" class="st1 st2">20</text>
	</g>
	<g>
		<polyline class="st0" points="485.2,47.6 513.5,31.3 541.9,47.6 541.9,80.3 513.5,96.7 485.2,80.3 485.2,47.6 		"/>
		<text transform="matrix(1 0 0 1 503.8132 69.6535)" class="st1 st2">21</text>
	</g>
	<g>
		<polyline class="st0" points="428.5,47.6 456.9,31.3 485.2,47.6 485.2,80.3 456.9,96.7 428.5,80.3 428.5,47.6 		"/>
		<text transform="matrix(1 0 0 1 447.4138 69.6535)" class="st1 st2">22</text>
	</g>
	<g>
		<polyline class="st0" points="371.8,47.6 400.2,31.3 428.5,47.6 428.5,80.3 400.2,96.7 371.8,80.3 371.8,47.6 		"/>
		<text transform="matrix(1 0 0 1 390.8337 69.6535)" class="st1 st2">23</text>
	</g>
</g>
<polyline class="st3" points="712,199 570.2,199 570.2,194.9 541.9,178.5 513.5,194.9 485.2,178.5 456.9,194.9 428.5,178.5 
	400.2,194.9 371.8,178.5 343.5,194.9 343.5,199 230.1,199 230.1,203.1 201.8,219.4 173.4,203.1 145.1,219.4 116.7,203.1 88.4,219.4 
	60.1,203.1 60.1,199 -110,199 "/>
</svg>
