<?xml version="1.0" encoding="utf-8"?>
<!-- Generator: Adobe Illustrator 18.0.0, SVG Export Plug-In . SVG Version: 6.00 Build 0)  -->
<!DOCTYPE svg PUBLIC "-//W3C//DTD SVG 1.1//EN" "http://www.w3.org/Graphics/SVG/1.1/DTD/svg11.dtd">
<svg version="1.1" id="Calque_1" xmlns="http://www.w3.org/2000/svg" xmlns:xlink="http://www.w3.org/1999/xlink" x="0px" y="0px"
	 viewBox="0 0 77.8 129.9" enable-background="new 0 0 77.8 129.9" xml:space="preserve">
<path fill="#FFFFFF" d="M0.7,129.9c1.5-10,2.8-13.2,9.3-20.9c8-9.6,26.7-18.2,37.3-29.9c10.9-12,11.5-35.1,6.6-45.2
	c-6.1-12.6-14.9-22.8-24-20.6c-9.5,2.2-6.6,12.3-5.6,13.6S30,33,36,30c3.6-1.8,6.4-4.9,6.4-4.9s15.6,6.6,9.1,28.5
	c-6,20.2-32.6,34.1-43.6,49.2C-0.6,114.5-0.8,125.4,0.7,129.9z"/>
<path fill="#FFFFFF" d="M77,0c-1.5,10-2.8,13.2-9.3,20.9c-8,9.6-26.7,18.2-37.3,29.9C19.7,62.8,19,85.9,23.9,96
	c6.1,12.6,14.9,22.8,24,20.6c9.5-2.2,6.6-12.3,5.6-13.6s-5.8-6.1-11.8-3.1c-3.6,1.8-6.4,4.9-6.4,4.9s-15.6-6.6-9.1-28.5
	C32.3,56,58.9,42.1,69.9,27C78.4,15.4,78.5,4.5,77,0z"/>
</svg>
