<?xml version="1.0" encoding="utf-8"?>
<!-- Generator: Adobe Illustrator 18.0.0, SVG Export Plug-In . SVG Version: 6.00 Build 0)  -->
<!DOCTYPE svg PUBLIC "-//W3C//DTD SVG 1.1//EN" "http://www.w3.org/Graphics/SVG/1.1/DTD/svg11.dtd">
<svg version="1.1" id="Calque_1" xmlns="http://www.w3.org/2000/svg" xmlns:xlink="http://www.w3.org/1999/xlink" x="0px" y="0px"
	 viewBox="79 -25 650 650" style="enable-background:new 79 -25 650 650;" xml:space="preserve">
<style type="text/css">
	.st0{fill:#FFFFFF;}
</style>
<g>
	<path class="st0" d="M256.8,474.8c15.9-21.8,38.9-43.1,63.7-64.9c-9.4-53,0.4-130.7,40.2-175.3c25.8-28.5,62.1-53,96-76.4
		c-14.2-31.2-40.5-42.4-40.5-42.4s-12.9,14.3-29.6,22.6c-27.7,13.9-49.4-8.3-54-14.3s-18-52.7,25.9-62.8
		c40.8-9.9,80.2,34.2,108.3,90c26.5-18.4,50.8-36.2,66.3-54.8c24.7-29.3,33.1-44.5,39.2-74.7C523.2-7.9,465.6-25,404-25
		C224.5-25,79,120.5,79,300c0,111.4,56.1,209.7,141.5,268.3C222,543.4,231.3,509.9,256.8,474.8z"/>
	<path class="st0" d="M341.3,352.4c-5.1,17.2-7.3,32.4-7.3,45.8c51.3-44.4,106.7-91.7,124.2-150.6c5.1-17.3,7.3-32.5,7.3-45.8
		C414.3,246.1,359.1,293.4,341.3,352.4z"/>
	<path class="st0" d="M579.4,26.3c-0.3,25.3-8.8,61-36.2,98.4c-15.9,21.8-38.9,43.1-63.8,64.9c9.6,53,0,131-40.6,175.7
		c-25.8,28.5-62.1,53-96,76.4c14.2,31.2,40.5,42.4,40.5,42.4s12.9-14.3,29.6-22.6c27.7-13.9,49.9,8.3,54.5,14.3
		c4.6,6,18,52.7-25.9,62.8c-40.8,9.9-80.4-34.3-108.4-90.2c-26.7,18.5-51.1,36.4-66.7,55.1c-23.4,27.7-32.2,42.8-38.2,70
		c50.7,32.6,111,51.6,175.7,51.6c179.5,0,325-145.5,325-325C729,185.1,669.4,84.1,579.4,26.3z"/>
</g>
</svg>
