<?xml version="1.0" encoding="utf-8"?>
<!-- Generator: Adobe Illustrator 18.0.0, SVG Export Plug-In . SVG Version: 6.00 Build 0)  -->
<!DOCTYPE svg PUBLIC "-//W3C//DTD SVG 1.1//EN" "http://www.w3.org/Graphics/SVG/1.1/DTD/svg11.dtd">
<svg version="1.1" id="Calque_2_-_copie" xmlns="http://www.w3.org/2000/svg" xmlns:xlink="http://www.w3.org/1999/xlink" x="0px"
	 y="0px" viewBox="0 0 63 63" style="enable-background:new 0 0 63 63;" xml:space="preserve">
	 <style>path{fill:white}</style>
<g>
	<path d="M10.3,28.3c0.2,0.2,0.4,0.3,0.6,0.5c0.2,0.2,0.4,0.4,0.6,0.6c0.4,0.5,0.7,1.1,0.9,1.7c0.2,0.6,0.4,1.1,0.6,1.6
		c0.2,0.5,0.4,1.1,0.6,1.6l0.2,0.4c0,0.1,0.1,0.3,0.2,0.4c0.1,0.3,0.2,0.5,0.3,0.8c0.2,0.5,0.4,1.1,0.6,1.6c0.2,0.5,0.4,1,0.5,1.5
		c0.2,0.5,0.3,0.9,0.5,1.4c0.2,0.6,0.3,1.1,0.5,1.5l0.1,0.1c0,0,0,0-0.1,0c0,0.1,0,0.1,0.1,0.2c0.9,0.7,2,1.6,3.4,2.7
		c0,0,0,0,0.1,0.1c0.1-0.4,0.3-0.8,0.4-1.4c0.4-1.5,0.9-3.7,1.1-6.3c0.1-1.3,0.2-2.8,0.2-4.3c0-1.5-0.1-3.1-0.3-4.8
		c-0.1-0.8-0.2-1.7-0.4-2.5c-0.2-0.9-0.4-1.7-0.6-2.5c-0.5-1.6-1.1-3.3-2-4.6c-0.5-0.6-1-1.2-1.6-1.6c-0.6-0.4-1.3-0.6-2-0.6
		c-0.7,0-1.4,0.2-2,0.5c-0.2,0.1-0.3,0.2-0.5,0.3c-0.2,0.1-0.4,0.2-0.5,0.4c-0.3,0.2-0.6,0.5-0.8,0.7c-0.5,0.5-0.8,1-1.1,1.8
		c-0.4,0.7-0.7,1.5-1.2,2.2c-0.8,1.4-1.7,2.6-2.5,3.7c-0.8,1.1-1.1,1.9-1.1,2.9c0,1,0,2,0,2.8c0,0.8,0.1,1.4,0.1,1.8
		c0.2-0.1,0.5-0.1,0.7-0.1c0.3,0,0.6,0,0.9,0c-0.1-0.3-0.1-0.7-0.1-1.2c0-0.2,0-0.5,0.1-0.7c0-0.2,0.1-0.4,0.2-0.7l0.1-0.3l0.2-0.4
		C7,30,7.2,29.8,7.3,29.6c0.3-0.4,0.6-0.7,0.9-0.9c0,0,0,0,0,0c-0.2-0.3-0.3-0.6-0.5-0.8C7.5,27.3,7.4,27,7.4,27s0.4,0,0.9,0.2
		C8.8,27.4,9.6,27.7,10.3,28.3z"/>
	<path d="M50.1,48.4C50.1,48.4,50.1,48.4,50.1,48.4L50.1,48.4L50.1,48.4C50,48.5,50,48.4,50.1,48.4z"/>
	<path d="M5.7,34.6c-0.2,0-0.4,0-0.7,0c-0.2,0.1-0.6,0.2-0.8,0.2c-0.5,0.2-0.9,0.5-1.1,1c-0.3,0.5-0.4,1-0.3,1.5
		c0,0.3,0.1,0.5,0.2,0.7L3,38.3c0,0,0.1,0.1,0.1,0.1c0.1,0.1,0.2,0.2,0.3,0.3c0.4,0.4,0.8,0.6,1.3,0.7c0.5,0.1,1,0.1,1.5,0.1
		c0.4,0,0.7-0.2,0.9-0.4c0.5-0.4,0.6-1,0.7-1.5C8,37.5,8,37.4,8,37.2c0-0.1,0-0.1,0-0.1c0,0,0,0,0,0c0-0.1-0.1-0.3-0.2-0.5
		c-0.2-0.4-0.5-1.1-1-1.5C6.5,34.8,6.2,34.6,5.7,34.6z"/>
	<path d="M20.5,18.4c0.8,1.4,1.2,2.8,1.6,4.2c0.3,0.9,0.4,1.8,0.6,2.7c0.2,0.9,0.2,1.8,0.3,2.6c0.1,1.7,0.2,3.4,0.2,5
		c0,1.6-0.2,3.1-0.4,4.5c-0.4,2.7-1,5-1.5,6.5c-0.3,0.8-0.5,1.3-0.7,1.7c0.5,0.4,1,0.8,1.6,1.2c0.9,0.6,1.9,1.3,2.9,1.5
		c1.2,0.3,2.4,0.7,3.6,0.8c1.2,0.2,2.4,0,3.7-0.2c0.6-0.1,1.3-0.3,1.9-0.4c0,0,0,0,0,0c0.1-0.4,0.2-1,0.3-1.8c0.1-0.8,0.1-1.7,0-2.8
		c-0.1-1.1-0.6-2-1.3-3.2c-0.7-1.2-1.5-2.4-2.2-4c-0.3-0.8-0.6-1.6-0.7-2.7c0-0.5,0.1-1.1,0.3-1.6l0-0.1l0.1-0.1l0.1-0.1l0.2-0.3
		c0.1-0.2,0.3-0.4,0.5-0.6c0.7-0.8,1.3-1.3,2.1-1.9c0.7-0.6,1.4-1.1,2.2-1.7c1.5-1.1,3.1-2.1,4.6-3.1c0.9-0.5,1.7-1.1,2.6-1.6l0-0.1
		c-0.1-0.3-0.3-0.7-0.4-0.9l0,0c0,0,0-0.1,0,0.1l0,0l0,0l0,0l0,0l0-0.1c0,0,0,0.1,0,0.1c0,0,0,0-0.1,0c-0.1-0.1-0.4-0.2-0.6-0.5
		c-0.2-0.3-0.4-0.6-0.5-0.9c-0.1-0.3-0.2-0.5-0.2-0.8c0-0.2,0-0.5-0.1-0.7c0-0.4,0-0.4,0-0.8c0-0.3,0.1-0.6,0.2-0.9
		c0.1-0.3,0.2-0.5,0.4-0.7c0.3-0.5,0.7-0.8,1.1-1.1c0.2-0.2,0.4-0.3,0.6-0.4c0.2-0.1,0.4-0.2,0.7-0.3l1-0.3l0.6,0.9
		c0.3,0.4,0.6,0.9,0.8,1.3c0.1,0.2,0.3,0.5,0.4,0.7l0,0.1l0,0l0,0c0,0,0,0.1,0,0l0,0l0,0l0.1,0.2l0.1,0.2c0.2,0.3,0.5,0.7,0.8,1.1
		c0.3,0.4,0.6,0.6,0.5,1.4c0.3,0,0.7-0.1,1.1,0c0.3,0,0.5,0.1,0.8,0.2c0.2-0.2,0.5-0.5,1-0.7c0.2-0.1,0.3-0.2,0.5-0.2
		c-0.1,0-0.1-0.1-0.2-0.1c-0.4-0.3-0.9-0.9-1-1.6c-0.2-0.8-0.1-1.6,0-2.6c0.1-0.9,0.1-1.9-0.3-2.8c-0.1-0.2-0.3-0.4-0.4-0.6
		c-0.1-0.1-0.2-0.2-0.3-0.3l-0.3-0.2c-0.4-0.3-1-0.7-1.5-1c-1.1-0.6-2.4-1.2-3.7-1.7c-1.3-0.5-2.7-0.9-4.1-1.2
		c-0.7-0.2-1.4-0.2-2.1-0.3c-0.4,0-0.6,0-0.9,0l-0.6,0.1l-0.1,0l0,0l-0.1,0l-0.3,0.1c-1.4,0.3-2.7,0.9-4,1.7
		c-1.3,0.7-2.7,1.5-4.1,2.1c-1.5,0.6-2.8,0.9-4,1.3c-1.2,0.4-2.4,0.8-3.2,1.1c-0.1,0-0.2,0.1-0.2,0.1c0,0,0,0.1,0,0.1
		c0,0.2,0,0.5,0,0.7c0,0.9,0,1.8-0.1,2.4C20.6,17.6,20.5,18.1,20.5,18.4z"/>
	<path d="M31.5,0C14.1,0,0,14.1,0,31.5C0,48.9,14.1,63,31.5,63c12.9,0,24-7.8,28.9-18.9c-0.5,0.3-1,0.6-1.6,0.6c-0.3,0-0.7,0-1,0
		l-0.5-0.1l-0.5-0.1c-0.7-0.2-1.4-0.6-1.9-1.2c-0.5-0.6-0.7-1.4-0.8-2.1c-0.1-0.7,0-1.5,0.3-2.2c0.2-0.4,0.5-0.7,0.8-1l-2.8-1.3l0,0
		l-2-1.1c-0.4,0.4-0.7,0.8-1.1,1.1c0,0.4,0,0.7,0,1.1c0,0.5,0,1.1,0.1,1.6l0,0.2c0,0,0,0.1,0,0.1l0,0.1l0.1,0.3
		c0.1,0.2,0.2,0.4,0.3,0.7c0.1,0.1,0.2,0.3,0.3,0.4l0,0c0.1,0.2,0.3,0.4,0.4,0.5l0.4,0.4c0.3,0.3,0.5,0.6,0.8,0.9
		c0.2,0.3,0.5,0.7,0.6,1.1c0.2,0.4,0.3,0.8,0.4,1.2c0,0.2,0.1,0.4,0.1,0.7c0,0.1,0,0.2,0,0.4l0,0.3c0,0.2,0,0.4-0.1,0.6
		c0,0.2-0.1,0.4-0.1,0.6c-0.1,0.4-0.2,0.8-0.3,1.2c-0.1,0.2-0.2,0.4-0.3,0.6c-0.1,0.1-0.1,0.2-0.2,0.3c-0.1,0.1-0.1,0.2-0.3,0.4l0,0
		l-0.2,0.2l-0.2,0.1c-1,0.3-2,0.6-3,0.9c-1,0.3-2,0.7-3,1.1c-2,0.8-3.9,1.6-5.9,2.4c-2,0.8-4,1.6-6.1,2.2c-1.1,0.3-2.1,0.5-3.2,0.6
		c-1.1,0.1-2.3,0.1-3.3-0.1c-1.2-0.2-2.2-0.5-3.2-1c-1-0.4-2-1-2.9-1.6c-0.9-0.6-1.8-1.3-2.7-1.9l-1.2-1c-0.4-0.3-0.7-0.5-1.1-0.7
		c-0.4-0.2-0.9-0.3-1.4-0.5c-0.5-0.2-1.3-0.5-1.9-1.2c-0.6-0.8-0.7-1.6-0.7-2.3c0-0.7,0.1-1.2,0-1.7c0-0.4,0-0.9-0.1-1.3
		c0-0.2-0.1-0.4-0.2-0.6c0-0.1-0.1-0.3-0.1-0.6c-0.1-0.3,0-1.1,0.4-1.5c0.3-0.3,0.5-0.5,0.7-0.6l0.4-0.2l0.6-0.4
		c0.3-0.2,0.6-0.4,0.9-0.6c0,0,0-0.1-0.1-0.1c-0.3-0.4-0.6-0.9-0.8-1.4c-0.3-0.5-0.6-1-0.9-1.5c-0.2-0.3-0.3-0.5-0.4-0.8
		c-0.1-0.1-0.1-0.2-0.2-0.4l-0.2-0.4c-0.5-1.1-1-2.3-1.3-3.2c-0.2-0.5-0.4-0.8-0.6-1.2c-0.1-0.1-0.1-0.2-0.2-0.3
		c-0.2,0.1-0.4,0.2-0.6,0.4c-0.1,0.1-0.2,0.2-0.3,0.3l-0.1,0.1l-0.2,0.3C8.1,31.6,8,31.8,8,32c-0.1,0.2-0.1,0.3-0.1,0.5
		c-0.1,0.3-0.1,0.6-0.1,0.9c0,0.3,0,0.5,0.1,0.6c0,0,0,0,0,0c0.9,0.6,1.3,1.3,1.6,1.8c0.1,0.3,0.2,0.5,0.3,0.7
		c0.1,0.2,0.1,0.3,0.1,0.3l0,0.1l0,0.1c0,0,0,0.1,0,0.2c0,0.1,0,0.5-0.1,0.8c-0.1,0.3-0.2,0.7-0.4,1.2c-0.2,0.4-0.6,0.9-1.1,1.3
		c-0.5,0.4-1.2,0.6-1.9,0.6c-0.6,0-1.3-0.1-1.9-0.3c-0.7-0.2-1.3-0.6-1.8-1.2c-0.1-0.1-0.2-0.3-0.3-0.4C2.2,39,2.1,39,2.1,38.9
		l-0.1-0.2c-0.2-0.4-0.2-0.8-0.3-1.2c0-0.8,0.2-1.5,0.5-2.1c0.4-0.6,0.9-1.1,1.6-1.4c0,0,0.1,0,0.1,0c-0.1-0.4-0.3-1.1-0.4-2.1
		c-0.1-0.8-0.3-1.7-0.4-2.9c0-0.6,0-1.3,0.2-2c0.2-0.7,0.6-1.4,0.9-2c0.7-1.2,1.5-2.4,2.2-3.7c0.4-0.7,0.7-1.3,1-2.1
		c0.3-0.7,0.8-1.7,1.5-2.4c0.4-0.4,0.7-0.7,1.2-0.9c0.2-0.2,0.4-0.2,0.6-0.4c0.2-0.1,0.4-0.3,0.7-0.4c0.9-0.5,2-0.8,3.1-0.7
		c1.1,0,2.2,0.3,3.1,0.9c0,0,0.1,0.1,0.1,0.1c0-0.1,0-0.2-0.1-0.3c0-0.2-0.1-0.5-0.2-0.7c0-0.1,0-0.2-0.1-0.4l0-0.2l0,0
		c0,0.3,0-0.4,0-0.3l0,0l0,0l0-0.1c0,0,0-0.3,0.1-0.6c0-0.1,0.1-0.2,0.1-0.4l0.1-0.2c0.2-0.3,0.4-0.5,0.6-0.7c0.4-0.3,0.7-0.5,1-0.7
		c1.3-0.7,2.5-1,3.8-1.4c1.3-0.3,2.7-0.6,4-1c1.3-0.4,2.6-0.9,4-1.5c1.4-0.6,3-1.2,4.6-1.5l0.3-0.1l0.1,0l0.1,0l0.1,0l0.6,0
		c0.4,0,0.9,0,1.3,0.1c0.8,0.1,1.6,0.2,2.4,0.4c1.5,0.4,3,0.9,4.3,1.5c1.4,0.6,2.6,1.2,3.8,1.9c1.1,0.7,2.3,1.5,2.9,2.8
		c0.3,0.6,0.4,1.3,0.4,1.9c0,0.6-0.1,1.1-0.1,1.6c-0.1,0.9-0.2,1.8-0.1,2.3c0.1,0.6,0.3,0.9,0.5,1c0.2,0.1,0.3,0.1,0.3,0.1l0,0.7
		c1.8-0.4,3.9,0.3,4.6,1.4c0.7,1.1,0.9,2.7,0.5,4c-0.1,0.3-0.2,0.5-0.2,0.7c0.3,0.3,0.6,0.5,0.9,0.8c0.3,0.3,0.6,0.6,0.9,1.2
		c0.1,0.2,0.2,1,0.2,1.3c0,0.4,0,0.7,0,1c0,0.7-0.1,1.3-0.1,1.8c-0.1,1.1-0.3,2.1-0.4,2.9c-0.1,0.9-0.3,1.6-0.4,2c0.1,0,0.2,0,0.3,0
		l0.2,0l0.2,0.1c0.1,0,0.2,0,0.4,0.1c0.7,0.2,1.1,0.6,1.4,1.1c0.3,0.4,0.5,0.9,0.6,1.2c0.1,0.3,0.1,0.5,0.1,0.6
		c0.7-2.7,1.1-5.4,1.1-8.3C63,14.1,48.9,0,31.5,0z"/>
	<path d="M55.7,37.5c0.1,0,0.1-0.1,0.2-0.1c0.5-0.3,1-0.5,1.5-0.6c0-0.4,0-1.1,0.1-2.2c0-0.8,0-1.8,0-2.9c0-0.5,0-1.1-0.1-1.7
		c0-0.3,0-0.6-0.1-0.9l0-0.2c0,0,0-0.1,0-0.1c0-0.1,0-0.1,0-0.1l-0.1-0.2c0,0.1-0.2-0.2-0.4-0.4c-0.2-0.2-0.5-0.4-0.8-0.6
		c-0.6-0.4-1.2-0.9-1.8-1.3c-1.3-0.9-2.7-1.8-4.2-2.7C49.6,23,49.7,23,49.5,23c-0.2,0-0.5,0-0.8,0.1c-0.7,0.2-1.4,0.5-2.2,0.9
		c-1.6,0.8-3.2,1.7-4.7,2.6c-1.6,0.9-3.1,1.8-4.6,2.8c-0.7,0.5-1.5,1-2.2,1.5c-0.7,0.5-1.4,1.1-1.9,1.6c-0.1,0.1-0.2,0.2-0.4,0.4
		l-0.2,0.3l-0.1,0.1l0,0l0,0c-0.1,0.2-0.2,0.5-0.2,0.8c0,0.6,0.2,1.3,0.4,2c0.5,1.4,1.3,2.6,2,3.9c0.3,0.6,0.6,1.2,0.9,1.9
		c0.2,0.6,0.4,1.3,0.4,1.9c0.1,1.2-0.1,2.2-0.2,3c-0.1,0.5-0.2,1-0.3,1.4c0.2-0.1,0.5-0.1,0.7-0.2c1.2-0.4,2.5-0.8,3.6-1.2
		c2.3-0.8,4.5-1.7,6.3-2.5c0.9-0.4,1.7-0.9,2.4-1.3c0.2-0.1,0.4-0.3,0.6-0.4l0.3-0.5c-0.2-0.2-0.5-0.4-0.7-0.6
		c-0.2-0.2-0.4-0.5-0.6-0.8c-0.1-0.2-0.2-0.4-0.3-0.5l0-0.1L47.6,40l-0.1-0.2c-0.2-0.6-0.3-1.2-0.5-1.8c-0.1-0.6-0.2-1.2-0.3-1.8v0
		v-0.6l0.5-0.4c1.1-0.9,2.4-1.5,3.7-2.3c1.2-0.7,2.5-1.4,3.8-2.1c-0.9,1.1-1.9,2.2-2.9,3.2c-0.1,0.1-0.1,0.1-0.2,0.2l1.5,1.4l0,0
		L55.7,37.5z"/>
	<path d="M50.2,48.3c0.1-0.1,0.1-0.2,0.2-0.3c0.1-0.2,0.2-0.5,0.3-0.8c0-0.1,0.1-0.3,0.1-0.4c0-0.2,0-0.3,0.1-0.4l0-0.3l0-0.2
		c0-0.1,0-0.2,0-0.4c-0.1-0.5-0.4-1-0.7-1.4c-0.2-0.2-0.4-0.4-0.6-0.6c-0.1-0.1-0.2-0.2-0.4-0.3c0,0-0.1,0-0.1,0
		c-0.1,0.1-0.2,0.2-0.3,0.3c-0.6,0.6-1.4,1.1-2.2,1.7c-1.7,1.1-3.8,2.2-6.2,3.2c-1.2,0.5-2.4,1-3.6,1.4c-1.3,0.4-2.6,0.9-3.9,1.2
		c-1.4,0.3-2.8,0.5-4.3,0.3c-1.5-0.2-2.7-0.6-3.9-1.1c-1.4-0.5-2.4-1.3-3.3-2c-0.9-0.8-1.7-1.5-2.4-2.2c-1.4-1.4-2.4-2.6-3.1-3.5
		c-0.3,0.2-0.6,0.4-0.9,0.6c-0.2,0.1-0.4,0.2-0.6,0.3c0,0.2,0.1,0.3,0.1,0.5c0.1,0.6,0.1,1.2,0,1.9c0,0.6-0.1,1.1-0.1,1.5
		c0,0.4,0.1,0.6,0.1,0.7c0,0.1,0.3,0.3,0.7,0.5c0.4,0.2,1,0.4,1.5,0.7c0.5,0.3,1.1,0.7,1.5,1.1l1.2,1.1c0.8,0.7,1.5,1.4,2.3,2
		c0.8,0.6,1.7,1.2,2.5,1.6c0.9,0.4,1.8,0.8,2.8,1c1,0.2,2,0.3,3,0.2c1-0.1,2-0.3,3-0.5c2-0.5,3.9-1.3,5.9-2.2
		c1.9-0.9,3.8-1.8,5.8-2.7C46.3,49.9,48.2,49.1,50.2,48.3C50.2,48.3,50.2,48.3,50.2,48.3z"/>
	<path d="M20.8,13.5L20.8,13.5L20.8,13.5c0,0.1,0,0.1,0,0.1C20.8,13.5,20.8,13.4,20.8,13.5z"/>
	<path d="M55.1,41.1c0,0.6,0.2,1.2,0.6,1.5c0.3,0.4,0.8,0.6,1.4,0.7l0.4,0.1l0.5,0c0.2,0,0.5,0,0.7-0.1c0.5-0.1,0.8-0.3,1-0.6
		c0.5-0.5,0.6-1.2,0.7-1.7c0-0.2,0-0.4,0-0.6c0-0.1,0-0.2,0-0.2l0-0.3c0-0.1,0-0.3-0.1-0.5c-0.1-0.2-0.1-0.5-0.3-0.7
		c-0.1-0.2-0.4-0.5-0.7-0.6c0,0-0.2-0.1-0.3-0.1c0,0-0.2-0.1-0.1,0l-0.2,0C58.4,38.1,58.2,38,58,38c-0.5,0-1,0.1-1.4,0.3
		c-0.5,0.2-0.9,0.6-1.2,1.1C55.1,39.9,55,40.5,55.1,41.1z"/>
	<path d="M45.4,19.5c-0.1-0.1-0.2-0.3-0.3-0.4L45,18.9l-0.1-0.2c-0.1-0.2-0.2-0.4-0.4-0.6L44.5,18c-0.1,0.1-0.2,0.2-0.3,0.3
		c-0.1,0.1-0.1,0.2-0.2,0.3c0,0.1-0.1,0.2-0.1,0.2c0,0-0.1,0.4-0.1,0.4c0,0.2,0,0.3,0,0.4c0,0.1,0,0.3,0,0.3l0,0.2
		c0,0,0,0.1,0.2,0.3c0.1,0.1,0.2,0.2,0.3,0.4c0.1,0.1,0.1,0.2,0.1,0.3l0,0.1l0,0l0,0l0,0.1l0,0c0,0.3,0.1,0.5,0.1,0.8
		c0.2-0.1,0.5-0.3,0.7-0.4c0.5-0.3,1.1-0.6,1.6-0.8c-0.1-0.1-0.3-0.2-0.4-0.3C46.2,20.2,45.8,19.9,45.4,19.5z"/>
	<path d="M51.6,21.2c1.3,1,2.8,1.9,4.1,2.9c0.4,0.3,0.7,0.6,1,0.8c0-0.1,0.1-0.2,0.1-0.3c0.2-0.8,0.3-2.1-0.4-3.2
		c-0.5-0.8-2.9-1.5-4.3-0.7C51.8,20.9,51.7,21,51.6,21.2C51.5,21.1,51.6,21.2,51.6,21.2z"/>
</g>
</svg>